# xmcd
#
# Track frame offsets:
#	150
#	16646
#	35426
#	51321
#	65466
#	77936
#	94741
#	108261
#	123291
#	138861
#	154496
#	168641
#	183681
#	198726
#
# Disc length: 2881 seconds
#
# Revision: 1
# Processed by: cddbd v1.5.1PL0 Copyright (c) Steve Scherf et al.
# Submitted via: audiograbber 1.83.01
#
DISCID=c10b3f0e
DTITLE=Michelle - Michelle - Kleine Seelenfeuer - Die schönsten Liebeslieder
DYEAR=2005
DGENRE=Schlager
TTITLE0=Wie Flammen im Wind
TTITLE1=Kleine Seelenfeuer (Album Version)
TTITLE2=Er nannte sie "My Baby Jane" (Album Version)
TTITLE3=Wilde Träume (Album Version)
TTITLE4=Viel zu tief (Album Version)
TTITLE5=Schläfst du schon
TTITLE6=Erste Sehnsucht (Album Version)  
TTITLE7=Du malst mir Sterne in die Augen
TTITLE8=Jamaica Blue (Album Version) 
TTITLE9=Sei zärtlich, wenn du kommst (leise, wenn du gehst) (Album Version)
TTITLE10=Im Auge des Orkans
TTITLE11=Eine Reise in die Zärtlichkeit (Album Version) 
TTITLE12=Bossa Nova (Album Version) 
TTITLE13=Und die Nacht wird schweigen (Album Version) 
EXTD=
EXTT0=
EXTT1=
EXTT2=
EXTT3=
EXTT4=
EXTT5=
EXTT6=
EXTT7=
EXTT8=
EXTT9=
EXTT10=
EXTT11=
EXTT12=
EXTT13=
PLAYORDER=
